<svg xmlns="http://www.w3.org/2000/svg">
<symbol id="beef" viewBox="0 0 44 39.212">
<g>
	<path d="M40.158,13.595c-0.365-0.693-0.732-1.389-1.098-2.089c1.488-1.032,2.652-2.173,3.48-3.356
		c-0.433-0.464-0.864-0.93-1.296-1.394c0.071-0.068,0.142-0.135,0.212-0.202c0.405,0.466,0.811,0.933,1.216,1.399
		c1.569-2.361,1.788-4.88,0.437-7.056l-0.281-0.451l-0.873,0.918c-0.351,0.37-0.687,0.726-1.032,1.072
		c-0.261,0.26-0.522,0.504-0.784,0.74c-0.006,0.053-0.018,0.097-0.041,0.119c-0.088,0.087-0.211,0.162-0.342,0.211
		c-3.408,2.896-7.048,3.787-11.621,2.893c-1.215-0.237-2.563-0.353-4.123-0.353c-1.438,0-2.914,0.096-4.341,0.189
		c-1.389,0.09-2.825,0.184-4.216,0.188c-0.358,0-0.723,0.011-1.089,0.02c0.013,0.042,0.031,0.082,0.043,0.124
		c0.044,0.155-0.03,0.438-0.148,0.519c-0.115,0.078-0.417,0.038-0.532-0.066c-0.2-0.183-0.355-0.365-0.468-0.557
		c-0.076,0-0.152,0.004-0.228,0.004c-0.968,0-2.089-0.051-3.072-0.435C9.028,5.668,8.135,5.155,7.263,4.596
		c0.096-0.111,0.17-0.235,0.212-0.375C7.521,4.073,7.437,3.75,7.338,3.714C7.096,3.628,6.694,3.771,6.353,3.998
		C6.071,3.806,5.79,3.613,5.513,3.421c-0.438-0.304-0.88-0.6-1.322-0.895C4.079,2.644,3.943,2.734,3.789,2.782
		c-0.307,0.095-0.62,0.171-1.09,0.298C2.871,2.604,3.01,2.2,3.152,1.818C2.922,1.653,2.675,1.469,2.385,1.253
		c-0.306-0.228-0.657-0.49-1.081-0.799L0.682,0L0.651,0.77C0.453,5.66,2.096,9.035,5.814,11.351
		c-0.349,0.453-0.701,0.882-1.042,1.299c-0.914,1.115-1.776,2.168-2.342,3.377c-1.503,3.21-2.152,4.841-1.61,5.917
		c0.498,0.988,1.82,1.257,4.221,1.744c0.381,0.077,0.792,0.16,1.23,0.253c1.222,0.257,1.723,0.563,2.107,1.772
		c1.494,4.707,4.339,8.592,8.457,11.545c1.806,1.296,3.62,1.953,5.392,1.953c1.625,0,3.15-0.564,4.542-1.665
		c-0.257-0.102-0.514-0.212-0.77-0.276c-0.171-0.043-0.166-0.771-0.258-1.268c0.752,0.161,1.303,0.28,1.902,0.407
		c0.051,0.077,0.107,0.167,0.167,0.26c0.274-0.238,0.547-0.48,0.818-0.725c-0.122,0.469-0.234,0.902-0.323,1.245
		c0.49-0.225,1.039-0.475,1.59-0.729c-0.138-0.481-0.437-0.819-0.789-0.956c2.003-1.851,3.842-3.873,5.003-6.181
		c1.035-2.056,1.94-3.844,3.43-4.967c0.033,0.01,0.06,0.019,0.095,0.029c-0.022-0.025-0.035-0.037-0.056-0.06
		c0.937-0.694,2.104-1.127,3.679-1.198c1.229-0.056,1.798-0.595,2.059-1.037c0.412-0.699,0.358-1.653-0.154-2.684
		C42.193,17.458,41.159,15.495,40.158,13.595z M3.724,5.456l6.922,3.803c-0.125,0.04-0.243,0.08-0.357,0.118
		C9.649,9.589,9.183,9.753,8.793,9.682C6.348,9.246,4.716,7.894,3.724,5.456z M6.114,12.583c0.302,0.276,0.578,0.526,0.884,0.806
		c-0.354,0.032-0.808,0.073-1.526,0.139C5.789,13.061,5.946,12.83,6.114,12.583z M3.161,20.815c0.678-2.413,1.51-4.372,2.934-5.935
		c-0.162,0.337-0.303,0.646-0.08,1.046c0.21,0.379,0.305,0.82,0.48,1.221c0.049,0.113,0.228,0.271,0.299,0.249
		c0.133-0.041,0.317-0.187,0.332-0.306c0.112-0.924-0.211-1.724-0.715-2.549c0.5-0.497,1.064-0.954,1.72-1.365l-0.43,4.689
		c0.27-0.183,0.66-0.253,1.188-0.194c-0.57,0.348-0.567,1.261-1.291,1.326L7.35,21.691L3.161,20.815z M7.721,20.954
		c0.599-0.104,1.03-0.203,1.464-0.223c0.057-0.003,0.256,0.514,0.178,0.6c-0.248,0.276-0.596,0.463-0.955,0.719
		C8.167,21.666,8.002,21.401,7.721,20.954z M27.728,33.825c0.107-0.262,0.183-0.543,0.195-0.792
		c0.052-0.977,0.052-0.977-0.669-2.022c0.054,0.544,0.146,1.083,0.322,1.596c0.151,0.441-0.007,0.938-0.434,1.073
		c-0.395,0.128-0.784,0.721-0.632,1.067c0.01,0.021,0.023,0.042,0.033,0.063c-0.202,0.158-0.399,0.318-0.609,0.475
		c-1.395,1.038-2.583,1.521-3.738,1.521c0,0,0,0,0,0c-1.04,0-2.127-0.381-3.468-1.217c-0.135,0-0.271,0-0.406,0
		c-0.016-0.082-0.032-0.162-0.047-0.244c0.019-0.004,0.038-0.009,0.057-0.014c-0.041-0.026-0.079-0.049-0.121-0.077
		c-1.203-0.813-2.289-1.762-3.252-2.811c0.103,0.035,0.198,0.067,0.293,0.096c0.392,0.118,0.764-0.164,0.636-0.521
		c-0.309-0.854,0.095-1.402,0.79-1.938c-0.427-0.293-0.689-0.273-0.828,0.232c-0.077,0.286-0.193,0.561-0.314,0.83
		c-0.281,0.624-0.72,0.681-1.18,0.164c-0.08-0.092-0.159-0.182-0.228-0.261c-0.088,0.035-0.183,0.058-0.265,0.083
		c-1.343-1.755-2.368-3.733-3.048-5.826c0.405,0.182,0.844,0.089,1.275,0.061c0.009-0.086,0.018-0.172,0.028-0.258
		c-0.463-0.03-0.925-0.061-1.387-0.089c-0.001,0.011-0.002,0.021-0.003,0.031c-1.01-3.261-1.178-6.786-0.349-10.179
		c-0.78-0.028-1.563-0.029-2.342-0.177c0.787,0,1.575,0.033,2.358-0.009c0.009,0,0.018-0.002,0.027-0.002
		c0.025-0.099,0.041-0.199,0.068-0.297c0.292-1.064,0.769-2.245,1.539-3.248c-0.209-1.098-0.419-2.202-0.628-3.297
		c0.097-0.045,0.193-0.091,0.29-0.136c0.135,0.261,0.256,0.531,0.407,0.782c0.144,0.238,0.318,0.458,0.479,0.685
		c0.227-0.213,0.502-0.394,0.667-0.647c0.171-0.263,0.236-0.595,0.394-1.025c0.237,0.53,0.417,0.931,0.579,1.295
		c-0.397,0.339-0.427,0.552-0.314,0.718c0.58-0.314,1.241-0.546,2.006-0.653c2.378-0.331,4.765-0.499,7.094-0.499
		c1.411,0,2.811,0.063,4.164,0.185c1.142,0.104,2.145,0.432,3.028,0.924c-0.034,0.165,0.07,0.344,0.333,0.773
		c0.104-0.195,0.18-0.339,0.229-0.455c1.664,1.153,2.767,3.057,3.199,5.604c0.168,0.986,0.239,1.988,0.303,2.872
		c0.026,0.365,0.05,0.705,0.077,0.973C34.347,25.087,32.178,29.878,27.728,33.825z M33.852,9.41l7.091-3.355
		c-0.688,1.948-2.111,3.153-4.33,3.672l-0.395,0.096c-0.438,0.111-0.891,0.226-1.279,0.226C34.574,10.048,34.171,9.964,33.852,9.41z
		 M37.304,22.299c-0.05-0.147-0.099-0.296-0.148-0.443c0.804-0.231,1.606-0.464,2.41-0.696c0.039,0.119,0.078,0.237,0.119,0.355
		C38.891,21.776,38.097,22.037,37.304,22.299z M36.964,21.748l-0.854-8.54c1.001,0.591,1.79,1.29,2.442,2.104
		c-0.039-0.662,0.475-0.591,0.986-0.422c0.047,1.605,0.047,1.605,0.5,1.704c-0.074,0.195-0.164,0.43-0.26,0.68
		c0.496,1.024,0.891,2.184,1.254,3.494L36.964,21.748z"/>
	<path d="M19.406,4.425c0.239,0.177,0.443,0.399,0.664,0.602c0.168-0.227,0.336-0.455,0.442-0.596
		c-0.841-1.107-1.609-2.118-2.377-3.129c-0.069,0.018-0.138,0.036-0.207,0.053c0.014,0.204-0.054,0.483,0.054,0.598
		C18.653,2.667,18.571,3.809,19.406,4.425z"/>
	<path d="M10.975,34.778c-0.079,0.35-0.201,0.688-0.216,1.029c-0.01,0.23,0.13,0.469,0.203,0.702
		c0.145-0.147,0.29-0.292,0.446-0.452c0.354,0.332,0.754,0.707,1.154,1.082C12.362,36.121,11.978,35.258,10.975,34.778z"/>
	<path d="M33.199,5.524c-0.323-0.064-0.643-0.155-0.969-0.185c-0.267-0.024-0.518,0.027-0.512-0.379
		c0.006-0.405-0.244-0.428-0.568-0.32c-0.555,0.186-0.789,0.514-0.533,1.168C31.443,4.935,32.285,5.909,33.199,5.524z"/>
	<path d="M22.787,9.299c-0.089-0.125-0.319-0.184-0.492-0.201c-0.069-0.007-0.187,0.168-0.233,0.281
		c-0.148,0.363-0.273,0.736-0.443,1.207c0.332-0.09,0.551-0.143,0.767-0.21C22.809,10.246,23.044,9.663,22.787,9.299z"/>
	<path d="M29.195,11.368c-0.457,0.949-0.384,1.467,0.188,1.991c0.08,0.073,0.293,0.102,0.374,0.047
		c0.083-0.057,0.136-0.256,0.104-0.366c-0.086-0.303-0.221-0.591-0.338-0.885C29.436,11.943,29.347,11.733,29.195,11.368z"/>
	<path d="M28.314,37.874c-0.457,0.373-0.378,0.809,0.156,1.048c0.336-0.492,0.67-0.985,1.004-1.479
		c-0.051-0.043-0.103-0.086-0.154-0.13C28.982,37.495,28.607,37.635,28.314,37.874z"/>
	<path d="M34.806,31.399c0.163,0.148,0.33,0.422,0.488,0.416c0.205-0.006,0.403-0.232,0.747-0.459
		c-0.3-0.262-0.544-0.557-0.616-0.52C35.186,30.958,35.008,31.202,34.806,31.399z"/>
	<path d="M30.24,5.152c-0.539-0.444-1.014-0.834-1.563-1.287C28.648,4.547,29.625,5.354,30.24,5.152z"/>
	<path d="M37.614,21.56c0.131-0.564,0.261-1.128,0.41-1.77C37.404,20.063,37.17,20.883,37.614,21.56z"/>
	<path d="M23.386,34.294c-0.671,0-1.226,0-1.873,0C21.897,34.792,22.53,34.784,23.386,34.294z"/>
	<path d="M19.415,26.608c0.106,0.228,0.214,0.451,0.314,0.68c0.094,0.213,0.179,0.433,0.269,0.649
		C20.197,26.892,19.998,26.507,19.415,26.608z"/>
	<path d="M20.738,35.344c-0.03-0.013-0.193,0.163-0.202,0.259c-0.007,0.072,0.127,0.178,0.22,0.23
		c0.209,0.119,0.432,0.215,0.741,0.366c0-0.161,0.061-0.384-0.011-0.443C21.266,35.58,21,35.456,20.738,35.344z"/>
	<path d="M8.55,31.523c0.042-0.046,0.084-0.093,0.127-0.14c-0.3-0.276-0.6-0.553-1.004-0.924
		C7.571,31.394,8.057,31.462,8.55,31.523z"/>
	<path d="M17.395,10.737c0.061-0.061,0.026-0.347-0.032-0.371c-0.146-0.059-0.35-0.079-0.491-0.02
		c-0.181,0.078-0.323,0.248-0.475,0.373c0.178,0.074,0.356,0.196,0.541,0.208C17.091,10.936,17.284,10.847,17.395,10.737z"/>
	<path d="M38.097,29.659c0.082,0.084,0.166,0.17,0.248,0.256c0.231-0.309,0.462-0.618,0.73-0.977
		C38.455,28.825,38.173,29.062,38.097,29.659z"/>
	<path d="M0,6.143c0.249,0.297,0.459,0.549,0.669,0.8C0.784,6.215,0.636,6.062,0,6.143z"/>
	<path d="M34.19,32.065c0.09,0.33,0.18,0.66,0.269,0.99c0.063-0.015,0.127-0.031,0.189-0.048
		C34.808,32.62,34.705,32.29,34.19,32.065z"/>
	<path d="M19.35,14.179c-0.333-0.382-0.665-0.765-0.999-1.148c-0.049,0.047-0.099,0.095-0.148,0.143
		c0.345,0.372,0.691,0.744,1.036,1.116C19.276,14.252,19.313,14.215,19.35,14.179z"/>
	<path d="M28.664,5.764c0.111-0.165,0.252-0.318,0.315-0.499c0.024-0.07-0.127-0.202-0.284-0.43
		c-0.148,0.304-0.271,0.472-0.301,0.656C28.38,5.564,28.568,5.672,28.664,5.764z"/>
	<ellipse cx="18.219" cy="20.872" rx="2.027" ry="1.834"/>
	<path d="M29.324,20.224c-0.111-0.207-0.209-0.438-0.41-0.638c-0.173-0.214-0.396-0.413-0.678-0.565
		c-0.26-0.166-0.593-0.267-0.908-0.321c-0.328-0.048-0.645-0.032-0.945,0.027c-0.288,0.07-0.566,0.164-0.791,0.301
		c-0.467,0.256-0.797,0.596-1.012,0.929c-0.227,0.314-0.338,0.64-0.396,0.868c-0.042,0.223-0.039,0.361-0.039,0.361
		s0.125-0.041,0.345-0.111c0.189-0.051,0.46-0.123,0.784-0.209c0.309-0.073,0.642-0.152,0.951-0.187
		c0.156-0.03,0.302-0.021,0.438-0.036c0.134,0.011,0.258,0.006,0.369,0.033c0.115,0.016,0.223,0.037,0.34,0.08
		c0.055,0.025,0.115,0.044,0.182,0.057c0.06,0.035,0.119,0.073,0.187,0.102c0.138,0.047,0.261,0.158,0.398,0.236
		c0.144,0.072,0.268,0.186,0.399,0.275c0.12,0.099,0.264,0.176,0.367,0.27c0.104,0.09,0.215,0.164,0.303,0.229
		c0.182,0.126,0.306,0.198,0.306,0.198s0.034-0.13,0.06-0.356c0.017-0.226,0.054-0.558-0.051-0.932
		C29.474,20.646,29.443,20.43,29.324,20.224z"/>
</g>
</symbol>
<symbol id="fb" viewBox="0 0 36.711 36.711">
<path d="M36.711,34.686c0,1.119-0.907,2.025-2.026,2.025H25.33V22.495h4.771l0.715-5.541H25.33v-3.537
	c0-1.604,0.445-2.696,2.746-2.696l2.934-0.001V5.764c-0.508-0.067-2.249-0.219-4.275-0.219c-4.23,0-7.127,2.582-7.127,7.323v4.086
	h-4.784v5.541h4.784v14.216H2.026C0.907,36.711,0,35.805,0,34.686V2.026C0,0.907,0.907,0,2.026,0h32.659
	c1.119,0,2.026,0.907,2.026,2.026V34.686z"/>
</symbol>
<symbol id="twitter" viewBox="0 0 37.453 31.21">
<path d="M36.421,0.577c-1.486,0.902-3.129,1.558-4.884,1.909C30.14,0.956,28.142,0,25.93,0
	c-4.24,0-7.682,3.528-7.682,7.879c0,0.618,0.066,1.217,0.198,1.794C12.061,9.344,6.399,6.211,2.607,1.438
	c-0.662,1.168-1.04,2.522-1.04,3.966c0,2.731,1.356,5.144,3.418,6.557c-1.257-0.038-2.444-0.396-3.481-0.981v0.096
	c0,3.819,2.648,7.004,6.167,7.725c-0.645,0.186-1.324,0.277-2.025,0.277c-0.495,0-0.979-0.047-1.447-0.139
	c0.979,3.129,3.815,5.408,7.179,5.469c-2.63,2.115-5.944,3.375-9.544,3.375c-0.619,0-1.232-0.037-1.833-0.109
	c3.4,2.232,7.441,3.537,11.778,3.537c14.136,0,21.863-12.004,21.863-22.417c0-0.343-0.006-0.685-0.021-1.021
	c1.502-1.112,2.807-2.498,3.832-4.078c-1.376,0.626-2.857,1.05-4.412,1.24C34.629,3.961,35.847,2.417,36.421,0.577"/>

</symbol>
<symbol id="inst" viewBox="0 0 36.663 36.664">
<path d="M32.305,0H4.357C1.95,0,0,1.946,0,4.349v27.967c0,2.4,1.95,4.348,4.357,4.348h27.947
	c2.407,0,4.358-1.947,4.358-4.348V4.349C36.663,1.946,34.712,0,32.305,0 M26.352,5.729c0-0.632,0.513-1.146,1.146-1.146h3.438
	c0.632,0,1.145,0.514,1.145,1.146v3.438c0,0.633-0.513,1.146-1.145,1.146h-3.438c-0.633,0-1.146-0.513-1.146-1.146V5.729z
	 M18.374,11.341c3.894,0,7.051,3.149,7.051,7.033c0,3.885-3.157,7.034-7.051,7.034s-7.051-3.148-7.051-7.034
	C11.323,14.49,14.48,11.341,18.374,11.341 M33.226,32.08c0,0.633-0.513,1.146-1.146,1.146H4.583c-0.633,0-1.146-0.514-1.146-1.146
	V14.895H8.02c-0.597,0.858-0.798,2.462-0.798,3.479c0,6.135,5.003,11.127,11.152,11.127s11.153-4.992,11.153-11.127
	c0-1.018-0.145-2.596-0.885-3.479h4.583V32.08z"/>
</symbol>
<symbol id="vk" viewBox="0 0 126 72">
<path d="M124.523,64.503c-0.152-0.328-0.293-0.597-0.426-0.816
			c-2.172-3.91-6.324-8.711-12.449-14.401l-0.129-0.134l-0.066-0.063l-0.066-0.066h-0.063c-2.781-2.651-4.543-4.434-5.281-5.344
			c-1.348-1.738-1.652-3.5-0.914-5.281c0.523-1.348,2.477-4.19,5.867-8.538c1.781-2.302,3.195-4.149,4.234-5.539
			c7.52-9.996,10.777-16.383,9.777-19.164l-0.387-0.649c-0.262-0.39-0.934-0.75-2.02-1.074c-1.086-0.327-2.477-0.383-4.172-0.163
			L99.656,3.398c-0.301-0.105-0.738-0.099-1.301,0.034c-0.566,0.13-0.852,0.195-0.852,0.195L97.18,3.793l-0.258,0.195
			c-0.219,0.129-0.457,0.354-0.719,0.683c-0.258,0.325-0.477,0.707-0.648,1.142c-2.047,5.258-4.367,10.145-6.977,14.663
			c-1.609,2.695-3.086,5.031-4.434,7.009c-1.348,1.976-2.477,3.434-3.387,4.366c-0.914,0.935-1.738,1.685-2.477,2.246
			c-0.742,0.567-1.305,0.806-1.695,0.72c-0.391-0.091-0.762-0.177-1.109-0.263c-0.609-0.39-1.098-0.922-1.465-1.597
			c-0.371-0.672-0.621-1.52-0.75-2.543c-0.129-1.021-0.207-1.899-0.23-2.637c-0.02-0.738-0.008-1.785,0.035-3.129
			c0.043-1.349,0.066-2.263,0.066-2.738c0-1.653,0.031-3.446,0.094-5.379c0.066-1.935,0.121-3.465,0.164-4.594
			c0.043-1.13,0.066-2.324,0.066-3.587c0-1.258-0.078-2.245-0.23-2.965c-0.148-0.715-0.379-1.41-0.684-2.086
			c-0.305-0.672-0.75-1.194-1.336-1.562c-0.586-0.371-1.313-0.664-2.18-0.883c-2.305-0.521-5.238-0.802-8.8-0.849
			c-8.082-0.086-13.274,0.438-15.579,1.567c-0.914,0.476-1.738,1.129-2.476,1.953c-0.781,0.957-0.891,1.479-0.328,1.565
			c2.609,0.392,4.453,1.325,5.543,2.802l0.39,0.784c0.305,0.563,0.61,1.563,0.911,2.996c0.304,1.435,0.5,3.021,0.585,4.758
			c0.219,3.173,0.219,5.888,0,8.149c-0.214,2.257-0.421,4.019-0.617,5.277c-0.195,1.262-0.488,2.28-0.879,3.065
			c-0.39,0.782-0.652,1.258-0.785,1.435c-0.129,0.172-0.238,0.28-0.324,0.323c-0.566,0.22-1.152,0.328-1.762,0.328
			c-0.605,0-1.344-0.304-2.215-0.914c-0.867-0.608-1.769-1.444-2.703-2.512c-0.933-1.062-1.988-2.55-3.164-4.464
			c-1.172-1.911-2.386-4.168-3.648-6.778l-1.043-1.89c-0.653-1.215-1.543-2.985-2.672-5.313c-1.129-2.323-2.129-4.569-2.996-6.745
			c-0.348-0.91-0.871-1.605-1.567-2.087l-0.324-0.194c-0.219-0.172-0.566-0.356-1.043-0.556c-0.48-0.194-0.976-0.336-1.5-0.422
			L4.172,3.265c-1.824,0-3.063,0.414-3.715,1.238L0.195,4.895C0.066,5.113,0,5.46,0,5.938c0,0.48,0.129,1.065,0.391,1.762
			C3,13.824,5.832,19.734,8.898,25.425c3.063,5.696,5.723,10.278,7.981,13.754c2.262,3.478,4.562,6.758,6.91,9.84
			c2.348,3.086,3.902,5.063,4.66,5.935c0.762,0.871,1.36,1.519,1.793,1.953l1.629,1.565c1.043,1.043,2.574,2.293,4.598,3.746
			c2.02,1.457,4.258,2.891,6.711,4.305c2.457,1.41,5.312,2.563,8.574,3.453c3.258,0.892,6.43,1.25,9.516,1.074h7.496
			c1.52-0.129,2.672-0.609,3.453-1.433l0.258-0.324c0.176-0.262,0.34-0.665,0.488-1.208c0.152-0.542,0.23-1.14,0.23-1.792
			c-0.043-1.868,0.098-3.551,0.422-5.051c0.324-1.496,0.695-2.625,1.109-3.388c0.414-0.762,0.879-1.401,1.402-1.922
			c0.52-0.522,0.891-0.836,1.109-0.944c0.215-0.11,0.387-0.185,0.52-0.231c1.043-0.347,2.27-0.007,3.684,1.012
			c1.41,1.024,2.734,2.281,3.977,3.781c1.238,1.5,2.727,3.184,4.461,5.051c1.742,1.867,3.262,3.258,4.563,4.172l1.305,0.781
			c0.871,0.524,2,1,3.391,1.435c1.391,0.437,2.605,0.547,3.648,0.327l16.688-0.262c1.648,0,2.934-0.272,3.844-0.815
			c0.914-0.544,1.453-1.142,1.629-1.789c0.176-0.653,0.184-1.392,0.035-2.22C124.824,65.406,124.672,64.828,124.523,64.503
			L124.523,64.503z M124.523,64.503"/>
</symbol>
</svg>